Coordinates
version=1
nRows=12
nColumns=34
inDegrees=yes

Units are S.I. units (second, meters, Newtons, ...)
If the header above contains a line with 'inDegrees', this indicates whether rotational values are in degrees (yes) or radians (no).

endheader
time	pelvis_tilt	pelvis_list	pelvis_rotation	pelvis_tx	pelvis_ty	pelvis_tz	hip_flexion_r	hip_adduction_r	hip_rotation_r	knee_angle_r	ankle_angle_r	subtalar_angle_r	mtp_angle_r	hip_flexion_l	hip_adduction_l	hip_rotation_l	knee_angle_l	ankle_angle_l	subtalar_angle_l	mtp_angle_l	lumbar_extension	lumbar_bending	lumbar_rotation	arm_flex_r	arm_add_r	arm_rot_r	elbow_flex_r	pro_sup_r	arm_flex_l	arm_add_l	arm_rot_l	elbow_flex_l	pro_sup_l
      3.43333330	    -40.86223899	    -49.22271601	    -64.59954416	      0.09469442	      0.59476177	     -0.03291399	      3.89316236	      1.75630882	    -22.97895053	     10.34881702	     16.02270513	     12.58289614	      0.00000000	      7.42783957	     -2.85340575	    -19.04778419	      0.00000000	     35.86767311	     26.27909918	      0.00000000	     -5.01246239	      5.08361603	     -2.83343404	     -0.13895565	     -7.65841508	     13.78835264	     21.92669892	    119.74817918	      2.36590433	     -5.32126095	     13.78338948	     27.36949328	    119.74817918
      3.45000000	    -41.15680938	    -49.17542518	    -64.86752448	      0.09318739	      0.59326743	     -0.03409715	      4.13014217	      1.84410921	    -23.28166078	     10.28370212	     16.05067914	     12.95399220	      0.00000000	      7.72470557	     -2.96072467	    -19.44971796	      0.00000000	     35.94524448	     26.64579792	      0.00000000	     -4.92461826	      5.36478936	     -2.42420078	     -0.09346796	     -7.24461578	     16.43022910	     21.16471819	    119.74817918	      2.68716916	     -4.70387071	     15.13292858	     26.44033372	    119.74817918
      3.46666670	    -41.10455146	    -49.18968611	    -64.89162308	      0.09209765	      0.59144952	     -0.03574475	      4.15793185	      1.75781809	    -23.33286696	     10.05037655	     15.85788623	     13.05080873	      0.00000000	      7.83140177	     -2.81449788	    -19.47593536	      0.00000000	     35.91910990	     26.65786502	      0.00000000	     -4.85939159	      5.53213210	     -2.23697244	     -0.34505833	     -7.10044159	     16.57048553	     20.99867058	    119.74817918	      2.39359552	     -4.43446752	     15.23927485	     26.40483039	    119.74817918
      3.48333330	    -41.08273023	    -49.28536886	    -64.86897972	      0.09001182	      0.58992866	     -0.03779541	      4.23452800	      1.73133066	    -23.34046574	      9.97290934	     15.84558171	     13.06418506	      0.00000000	      7.95895204	     -2.75986630	    -19.47992259	      0.00000000	     35.92130083	     26.65925624	      0.00000000	     -4.96060278	      5.65330716	     -2.15089480	     -0.43662178	     -7.17588706	     16.57701629	     20.93413782	    119.74817918	      2.22045584	     -4.56436645	     15.23394253	     26.32910746	    119.74817918
      3.50000000	    -41.75879996	    -49.20597211	    -65.80250330	      0.08875101	      0.58900331	     -0.03880773	      4.40556094	      2.17492541	    -23.16981245	      9.43219228	     15.39610934	     13.66186818	      0.00000000	      8.31803744	     -3.14086783	    -19.86405994	      0.00000000	     36.05963557	     26.59956251	      0.00000000	     -4.47809340	      6.20211666	     -1.65534457	     -0.58894750	     -7.97227987	     17.15711882	     20.38857554	    119.74817918	      1.55559779	     -5.06015333	     15.89614308	     26.82932859	    119.74817918
      3.51666670	    -41.73211319	    -49.27257680	    -65.80222641	      0.08752153	      0.58818919	     -0.04012538	      4.44420912	      2.16369019	    -23.20146866	      9.39743164	     15.37516843	     13.63044520	      0.00000000	      8.38009681	     -3.11380623	    -19.84726433	      0.00000000	     36.05666139	     26.61228959	      0.00000000	     -4.51373312	      6.24326612	     -1.55246379	     -0.72187194	     -8.71125117	     17.08393299	     20.20015731	    119.74345937	      1.29777586	     -5.72593109	     15.82890171	     26.68201333	    119.74551263
      3.53333330	    -41.94098323	    -49.09198018	    -66.11418213	      0.08710470	      0.58827928	     -0.03968651	      4.68505506	      2.27868539	    -22.81656692	      9.37159258	     15.22454654	     13.30021720	      0.00000000	      8.60877213	     -3.20692651	    -19.95388728	      0.00000000	     36.17867587	     26.58697802	      0.00000000	     -4.11481628	      6.32802871	     -1.48367853	     -1.18063569	     -9.76347858	     17.65598975	     20.52618087	    119.74817918	      0.03773798	     -7.10381405	     16.94382555	     28.40738226	    119.74817918
      3.55000000	    -41.81965218	    -48.96057277	    -65.92244790	      0.08695673	      0.58886619	     -0.03894713	      4.80031357	      2.22017472	    -22.44609990	      9.45901061	     15.22569217	     12.59675504	      0.00000000	      8.68900617	     -3.10961794	    -19.88860371	      0.00000000	     36.24229971	     26.61931491	      0.00000000	     -3.91680936	      6.12265703	     -1.68115922	     -1.56069112	    -10.74056955	     18.15713373	     20.80218480	    119.74817918	     -0.84220477	     -8.50557724	     17.90542716	     29.35372199	    119.74817918
      3.56666670	    -41.76084453	    -48.97743670	    -65.88333400	      0.08758407	      0.59027160	     -0.03776755	      4.73777236	      2.25829079	    -22.40519203	      9.63322605	     15.21149401	     12.44927892	      0.00000000	      8.54868458	     -3.16720789	    -19.87754060	      0.00000000	     36.23758079	     26.58831780	      0.00000000	     -3.79227829	      5.99454111	     -1.74578219	     -1.95185726	    -11.56286961	     18.13259437	     20.67667542	    119.74817918	     -1.51346943	     -9.45921480	     17.96072832	     29.18613625	    119.74817918
      3.58333330	    -41.41462657	    -48.73985542	    -65.36251402	      0.08850135	      0.59154390	     -0.03613828	      4.76569786	      2.06090146	    -21.85517238	      9.68809913	     15.40167915	     11.44935285	      0.00000000	      8.59182304	     -2.88612326	    -19.66589016	      0.00000000	     36.33132451	     26.59033862	      0.00000000	     -3.52276483	      5.53737104	     -2.20391324	     -2.65735722	    -12.61710840	     18.57970314	     21.89319561	    119.74817918	     -2.80831764	    -11.24242949	     19.12594767	     31.06651523	    119.74817918
      3.60000000	    -41.21116653	    -48.68395205	    -65.08219674	      0.09015953	      0.59331572	     -0.03445292	      4.54536145	      2.06309549	    -21.34426343	      9.59822999	     15.36845780	     10.65548603	      0.00000000	      8.43362126	     -2.79820120	    -19.50578609	      0.00000000	     36.39128475	     26.46015482	      0.00000000	     -3.30845154	      5.27211401	     -2.48035389	     -3.22707068	    -13.54450056	     18.74076494	     22.47306929	    119.74817918	     -3.79347809	    -12.59713887	     19.72124060	     31.73368327	    119.74817918
      3.61666670	    -41.06916636	    -48.65937620	    -65.00712077	      0.09204746	      0.59508800	     -0.03280245	      4.25697602	      2.12988746	    -20.89957174	      9.38584405	     15.31676061	     10.02948574	      0.00000000	      8.21899827	     -2.75829993	    -19.37006812	      0.00000000	     36.47269963	     26.27066052	      0.00000000	     -3.12070637	      5.06502927	     -2.65359719	     -3.74533393	    -14.40985094	     18.63316420	     23.03661405	    119.74817918	     -4.70162555	    -13.68331048	     19.83332244	     32.12498018	    119.74817918
